# File created by Blade
# Date/Time:  Wed Apr 08 17:19:54 2015
# Frame Rate: 120.000 fps
#------------------------------------------------------
:FULLY-SPECIFIED
:DEGREES
1169
root 10.023733 37.668972 -0.113974 167.007915 -47.711476 -145.659363
Spine 9.872488 -1.176941 -4.197694
Head -2.177319 7.681570 24.257097
LeftShoulder -7.865499 14.391332 18.843215
LeftArm 14.367588 23.431071 -74.812046
LeftForeArm 25.551708 -0.000000 20.652345
LeftHand -10.486457 0.000000 -19.484179
LeftHandThumb1 -26.253704 0.000000 33.147579
RightShoulder -40.110425 -48.529075 31.517298
RightArm 50.322725 -22.763837 60.783889
RightForeArm 24.320276 -0.000000 3.152723
RightHand -6.655571 -0.000000 9.056148
RightHandThumb1 -24.326973 -0.000000 -32.862282
LeftUpLeg -13.059848 23.651318 12.632635
LeftLeg 6.619297 -0.000000 -0.000000
LeftFoot -12.538502 14.818240 -6.559231
LeftToeBase -0.087228 -0.000000 0.000000
RightUpLeg 2.930417 -3.059516 -13.468879
RightLeg 145.609042 -0.000000 -0.000000
RightFoot 37.621296 7.127479 20.757892
RightToeBase 17.608912 -0.000000 -0.000000
1170
root 10.017773 37.658783 -0.104587 167.349027 -47.793668 -145.932221
Spine 9.814629 -1.205322 -4.249076
Head -2.169862 7.581740 24.220277
LeftShoulder -7.870312 14.377075 18.838096
LeftArm 14.208741 23.413382 -74.776238
LeftForeArm 25.629527 0.000000 20.511240
LeftHand -10.531089 0.000000 -19.548417
LeftHandThumb1 -26.253704 0.000000 33.147579
RightShoulder -40.088655 -48.574107 31.463260
RightArm 50.335671 -22.844997 60.698278
RightForeArm 24.003283 -0.000000 3.126483
RightHand -6.729788 -0.000000 9.254455
RightHandThumb1 -24.326973 -0.000000 -32.862282
LeftUpLeg -13.171413 23.651378 12.341648
LeftLeg 6.522188 -0.000000 -0.000000
LeftFoot -12.482394 14.795681 -6.492814
LeftToeBase -0.169521 -0.000000 0.000000
RightUpLeg 3.186306 -2.732039 -13.038236
RightLeg 145.459108 -0.000000 -0.000000
RightFoot 37.573687 7.102076 21.002621
RightToeBase 17.504812 -0.000000 -0.000000
1171
root 10.014637 37.649979 -0.094855 167.674750 -47.872256 -146.154222
Spine 9.739637 -1.216438 -4.260334
Head -2.179250 7.445856 24.182523
LeftShoulder -7.880087 14.375114 18.854442
LeftArm 14.117253 23.427596 -74.746972
LeftForeArm 25.704084 0.000000 20.335533
LeftHand -10.506233 -0.000000 -19.542895
LeftHandThumb1 -26.253704 0.000000 33.147579
RightShoulder -40.062231 -48.582400 31.399018
RightArm 50.287482 -22.926330 60.642644
RightForeArm 23.671161 -0.000000 3.126990
RightHand -6.807448 -0.000000 9.389502
RightHandThumb1 -24.326973 -0.000000 -32.862282
LeftUpLeg -13.344562 23.679017 12.076724
LeftLeg 6.485866 -0.000000 -0.000000
LeftFoot -12.450080 14.732313 -6.457877
LeftToeBase -0.272495 -0.000000 0.000000
RightUpLeg 3.364993 -2.469245 -12.605146
RightLeg 145.307939 -0.000000 -0.000000
RightFoot 37.547737 7.065893 21.093122
RightToeBase 17.684507 -0.000000 -0.000000
1172
root 10.013424 37.640380 -0.081757 168.038140 -47.939146 -146.390886
Spine 9.641382 -1.219382 -4.268635
Head -2.228498 7.327109 24.108899
LeftShoulder -7.903242 14.418195 18.843238
LeftArm 14.094413 23.384780 -74.705650
LeftForeArm 25.733394 -0.000000 20.142610
LeftHand -10.530755 -0.000000 -19.490223
LeftHandThumb1 -26.253704 0.000000 33.147579
RightShoulder -40.019786 -48.588313 31.338178
RightArm 50.285250 -23.041230 60.512494
RightForeArm 23.482994 -0.000000 3.045327
RightHand -6.889825 0.000000 9.537204
RightHandThumb1 -24.326973 -0.000000 -32.862282
LeftUpLeg -13.578641 23.723689 11.792099
LeftLeg 6.509919 -0.000000 -0.000000
LeftFoot -12.426215 14.665325 -6.399521
LeftToeBase -0.373882 -0.000000 0.000000
RightUpLeg 3.459033 -2.300459 -12.240476
RightLeg 145.179435 -0.000000 -0.000000
RightFoot 37.461558 6.868478 20.931875
RightToeBase 17.654157 -0.000000 -0.000000
